REM MD5 e3145e7d3edf5a2bc178b6141d094666
FILE "Dynamite Boxing (Japan) (Demo).bin" BINARY
  TRACK 01 MODE2/2352
    INDEX 01 00:00:00
  TRACK 02 AUDIO
    INDEX 00 02:54:12
    INDEX 01 02:56:12
  TRACK 03 AUDIO
    INDEX 00 05:40:38
    INDEX 01 05:42:38
  TRACK 04 AUDIO
    INDEX 00 05:50:03
    INDEX 01 05:52:03
  TRACK 05 AUDIO
    INDEX 00 05:59:37
    INDEX 01 06:01:37
REM LEADOUT 09:02:68
